<svg width="200" height="60" viewBox="0 0 200 60" xmlns="http://www.w3.org/2000/svg">
  <!-- Background -->
  <rect width="200" height="60" fill="#f8f9fa" rx="8"/>
  
  <!-- Eden Text -->
  <text x="50" y="38" font-family="system-ui, -apple-system, sans-serif" font-size="32" font-weight="bold" fill="#2d5016">
    Eden
  </text>
  
  <!-- Coworking Text -->
  <text x="20" y="52" font-family="system-ui, -apple-system, sans-serif" font-size="10" fill="#6c757d" letter-spacing="1px">
    COWORKING
  </text>
  
  <!-- Leaf Icon -->
  <g transform="translate(15, 15)">
    <path d="M8 2c3 0 6 2 8 5c-2-1-4-1-6 0c-1-2-2-3-4-3c-2 0-3 1-3 3c0 2 1 4 3 6c-1 1-2 2-2 4c0 3 2 5 5 5c2 0 4-1 5-3c1 2 3 3 5 3c3 0 5-2 5-5c0-2-1-3-2-4c2-2 3-4 3-6c0-2-1-3-3-3c-2 0-3 1-4 3c-2-1-4-1-6 0c2-3 5-5 8-5" fill="#4a7c59" stroke="#2d5016" stroke-width="0.5"/>
  </g>
  
  <!-- Accent dot -->
  <circle cx="185" cy="30" r="6" fill="#4a7c59"/>
</svg>